<svg width="31" height="30" viewBox="0 0 31 30" fill="none" xmlns="http://www.w3.org/2000/svg">
<path d="M27.6914 10.435V4.89238C27.6914 3.171 26.9101 2.47513 24.969 2.47513H20.0368C18.0957 2.47513 17.3143 3.171 17.3143 4.89238V10.4228C17.3143 12.1563 18.0957 12.84 20.0368 12.84H24.969C26.9101 12.8522 27.6914 12.1563 27.6914 10.435Z" fill="white"/>
<path d="M27.6914 24.1693V19.2372C27.6914 17.296 26.9101 16.5147 24.969 16.5147H20.0368C18.0957 16.5147 17.3143 17.296 17.3143 19.2372V24.1693C17.3143 26.1105 18.0957 26.8918 20.0368 26.8918H24.969C26.9101 26.8918 27.6914 26.1105 27.6914 24.1693Z" fill="white"/>
<path d="M13.6519 10.435V4.89238C13.6519 3.171 12.8705 2.47513 10.9294 2.47513H5.99724C4.05611 2.47513 3.27478 3.171 3.27478 4.89238V10.4228C3.27478 12.1563 4.05611 12.84 5.99724 12.84H10.9294C12.8705 12.8522 13.6519 12.1563 13.6519 10.435Z" fill="white"/>
<path d="M13.6519 24.1693V19.2372C13.6519 17.296 12.8705 16.5147 10.9294 16.5147H5.99724C4.05611 16.5147 3.27478 17.296 3.27478 19.2372V24.1693C3.27478 26.1105 4.05611 26.8918 5.99724 26.8918H10.9294C12.8705 26.8918 13.6519 26.1105 13.6519 24.1693Z" fill="white"/>
</svg>
