<svg width="31" height="30" viewBox="0 0 31 30" fill="none" xmlns="http://www.w3.org/2000/svg">
<path d="M24.9722 12.34L24.9722 12.34H24.9691H20.0369C19.1036 12.34 18.5776 12.1712 18.2791 11.907C17.9964 11.6568 17.8145 11.2262 17.8145 10.4228V4.89238C17.8145 4.09604 17.9959 3.6643 18.2799 3.41201C18.5789 3.14633 19.1054 2.97513 20.0369 2.97513H24.9691C25.9006 2.97513 26.4271 3.14633 26.7261 3.41201C27.0101 3.6643 27.1915 4.09604 27.1915 4.89238V10.435C27.1915 11.2317 27.0099 11.6626 26.7269 11.9132C26.4289 12.1768 25.9035 12.3459 24.9722 12.34Z" stroke="#8B8B8B"/>
<path d="M27.1915 19.2372V24.1693C27.1915 25.0898 27.0033 25.6063 26.7047 25.9049C26.406 26.2036 25.8896 26.3918 24.9691 26.3918H20.0369C19.1164 26.3918 18.6 26.2036 18.3013 25.9049C18.0027 25.6063 17.8145 25.0898 17.8145 24.1693V19.2372C17.8145 18.3167 18.0027 17.8002 18.3013 17.5016C18.6 17.2029 19.1164 17.0147 20.0369 17.0147H24.9691C25.8896 17.0147 26.406 17.2029 26.7047 17.5016C27.0033 17.8002 27.1915 18.3167 27.1915 19.2372Z" stroke="#8B8B8B"/>
<path d="M10.9324 12.34L10.9324 12.34H10.9293H5.99712C5.06381 12.34 4.5378 12.1712 4.23934 11.907C3.9566 11.6568 3.77466 11.2262 3.77466 10.4228V4.89238C3.77466 4.09604 3.95612 3.6643 4.24007 3.41201C4.53909 3.14633 5.06559 2.97513 5.99712 2.97513H10.9293C11.8608 2.97513 12.3873 3.14633 12.6863 3.41201C12.9703 3.6643 13.1517 4.09604 13.1517 4.89238V10.435C13.1517 11.2317 12.9701 11.6626 12.6871 11.9132C12.3891 12.1768 11.8637 12.3459 10.9324 12.34Z" stroke="#8B8B8B"/>
<path d="M13.1517 19.2372V24.1693C13.1517 25.0898 12.9635 25.6063 12.6649 25.9049C12.3662 26.2036 11.8498 26.3918 10.9293 26.3918H5.99712C5.07663 26.3918 4.56017 26.2036 4.26152 25.9049C3.96287 25.6063 3.77466 25.0898 3.77466 24.1693V19.2372C3.77466 18.3167 3.96287 17.8002 4.26152 17.5016C4.56017 17.2029 5.07663 17.0147 5.99712 17.0147H10.9293C11.8498 17.0147 12.3662 17.2029 12.6649 17.5016C12.9635 17.8002 13.1517 18.3167 13.1517 19.2372Z" stroke="#8B8B8B"/>
</svg>
