<svg width="31" height="31" viewBox="0 0 31 31" fill="none" xmlns="http://www.w3.org/2000/svg">
<path d="M9.43234 9.01972C10.0822 8.59455 10.5101 7.87152 10.5101 7.0504C10.5101 5.74166 9.42373 4.68114 8.08258 4.68114C6.74143 4.68114 5.65464 5.74166 5.65464 7.0504C5.65464 7.87152 6.08336 8.59495 6.73281 9.01972C5.04827 9.50534 3.83307 10.8421 3.83307 12.1424C3.83307 13.7695 5.73628 13.5617 8.08299 13.5617C10.4305 13.5617 12.3329 13.7699 12.3329 12.1424C12.3333 10.8417 11.1185 9.50494 9.43234 9.01972ZM24.9325 9.01972C25.5824 8.59455 26.0103 7.87152 26.0103 7.0504C26.0103 5.74166 24.9239 4.68114 23.5827 4.68114C22.2416 4.68114 21.1548 5.74206 21.1548 7.0504C21.1548 7.87152 21.5835 8.59495 22.233 9.01972C20.5484 9.50534 19.3332 10.8421 19.3332 12.1424C19.3332 13.7695 21.2364 13.5617 23.5831 13.5617C25.9307 13.5617 27.8331 13.7699 27.8331 12.1424C27.8331 10.8417 26.6183 9.50494 24.9325 9.01972ZM17.3229 20.4269C18.0401 19.9573 18.5127 19.1594 18.5127 18.2526C18.5127 16.8081 17.3131 15.6367 15.8325 15.6367C14.3522 15.6367 13.1522 16.8081 13.1522 18.2526C13.1522 19.1594 13.6248 19.9577 14.3424 20.4269C12.4818 20.9629 11.1407 22.4386 11.1407 23.8743C11.1407 25.6706 13.2412 25.4408 15.8329 25.4408C18.4245 25.4408 20.5246 25.6706 20.5246 23.8743C20.525 22.4382 19.1835 20.9625 17.3229 20.4269Z" stroke="#82868C" stroke-width="1.3" stroke-miterlimit="10"/>
<path d="M19.9869 19.9119L24.1407 15.7581" stroke="#82868C" stroke-width="1.3" stroke-miterlimit="10"/>
<path d="M7.52539 15.7581L11.6792 19.9119" stroke="#82868C" stroke-width="1.3" stroke-miterlimit="10"/>
<path d="M12.6022 9.29652H18.6022" stroke="#82868C" stroke-width="1.3" stroke-miterlimit="10"/>
</svg>
