<svg width="33" height="34" viewBox="0 0 33 34" fill="none" xmlns="http://www.w3.org/2000/svg">
<path fill-rule="evenodd" clip-rule="evenodd" d="M5.66675 14.2998C7.04747 14.2998 8.16675 15.4145 8.16675 16.7898V16.8098C8.16675 18.1851 7.04747 19.2998 5.66675 19.2998C4.28603 19.2998 3.16675 18.1851 3.16675 16.8098V16.7898C3.16675 15.4145 4.28603 14.2998 5.66675 14.2998ZM15.6667 14.2998C17.0475 14.2998 18.1667 15.4145 18.1667 16.7898V16.8098C18.1667 18.1851 17.0475 19.2998 15.6667 19.2998C14.2859 19.2998 13.1667 18.1851 13.1667 16.8098V16.7898C13.1667 15.4145 14.2859 14.2998 15.6667 14.2998ZM25.6667 14.2998C27.0475 14.2998 28.1667 15.4145 28.1667 16.7898V16.8098C28.1667 18.1851 27.0475 19.2998 25.6667 19.2998C24.2859 19.2998 23.1667 18.1851 23.1667 16.8098V16.7898C23.1667 15.4145 24.2859 14.2998 25.6667 14.2998Z" fill="#969696"/>
</svg>
