<svg width="31" height="31" viewBox="0 0 31 31" fill="none" xmlns="http://www.w3.org/2000/svg">
<path d="M15.8331 21.1185C15.0681 21.1185 14.4481 20.4985 14.4481 19.7335C14.4481 19.4585 14.2231 19.2335 13.9481 19.2335C13.6731 19.2335 13.4481 19.4585 13.4481 19.7335C13.4481 20.8735 14.2581 21.8285 15.3331 22.0635V22.4285C15.3331 22.7035 15.5581 22.9285 15.8331 22.9285C16.1081 22.9285 16.3331 22.7035 16.3331 22.4285V22.0635C17.4081 21.8335 18.2181 20.8785 18.2181 19.7335C18.2181 18.3285 17.1481 17.7685 15.9981 17.3785C14.9181 17.0085 14.4531 16.5885 14.4531 15.9685C14.4531 15.2085 15.0731 14.5835 15.8381 14.5835C16.6031 14.5835 17.2231 15.2035 17.2231 15.9685C17.2231 16.2435 17.4481 16.4685 17.7231 16.4685C17.9981 16.4685 18.2231 16.2435 18.2231 15.9685C18.2231 14.8285 17.4131 13.8735 16.3381 13.6385V13.2735C16.3381 12.9985 16.1131 12.7735 15.8381 12.7735C15.5631 12.7735 15.3381 12.9985 15.3381 13.2735V13.6385C14.2631 13.8685 13.4531 14.8235 13.4531 15.9685C13.4531 17.4035 14.7231 17.9985 15.6731 18.3235C16.8281 18.7185 17.2181 19.0735 17.2181 19.7335C17.2181 20.4985 16.5981 21.1185 15.8331 21.1185Z" fill="#82868C"/>
<path d="M6.94305 20.8035C6.94305 25.5985 9.84805 27.9335 15.8331 27.9335C21.8181 27.9335 24.7231 25.5985 24.7231 20.8035C24.7231 16.6285 22.3581 10.8485 18.7931 8.66347L20.1431 3.56347C20.1831 3.41347 20.1481 3.25347 20.0581 3.12847C19.9631 3.00347 19.8181 2.93347 19.6631 2.93347H16.3131C16.1081 2.93347 15.9181 3.05847 15.8481 3.25347L15.5631 3.98347H11.4031C11.2381 3.98347 11.0831 4.06347 10.9881 4.20347C10.8931 4.33847 10.8731 4.51347 10.9331 4.66847L12.5681 8.84847C9.17805 11.1635 6.94305 16.7435 6.94305 20.8035ZM12.1381 4.98347H15.1781L14.8681 5.78347C14.7681 6.04347 14.8981 6.32847 15.1531 6.42847C15.4131 6.52847 15.6981 6.39847 15.7981 6.14347L16.6581 3.93347H19.0131L17.8831 8.19347C17.2281 7.92347 16.5481 7.76847 15.8331 7.76847C14.9981 7.76847 14.2031 7.97347 13.4531 8.33847L12.1381 4.98347ZM15.8331 8.76847C20.0081 8.76847 23.7231 15.4985 23.7231 20.7985C23.7231 25.0435 21.2931 26.9335 15.8331 26.9335C10.3731 26.9335 7.94305 25.0435 7.94305 20.8035C7.94305 15.4985 11.6581 8.76847 15.8331 8.76847Z" fill="#82868C"/>
</svg>
