<svg width="31" height="30" viewBox="0 0 31 30" fill="none" xmlns="http://www.w3.org/2000/svg">
<mask id="path-1-outside-1_228_2156" maskUnits="userSpaceOnUse" x="2.83252" y="1.99948" width="26" height="26" fill="black">
<rect fill="white" x="2.83252" y="1.99948" width="26" height="26"/>
<path fill-rule="evenodd" clip-rule="evenodd" d="M3.96305 13.228C3.97502 13.1463 4.00704 13.0689 4.05625 13.0025C4.10546 12.9362 4.17031 12.8831 4.24503 12.848L7.24305 11.44L6.11805 8.32902C6.09003 8.25138 6.08166 8.168 6.0937 8.08634C6.10574 8.00468 6.13781 7.92725 6.18705 7.861C6.89405 6.907 7.74004 6.06101 8.69404 5.35401C8.76029 5.30477 8.83772 5.2727 8.91938 5.26066C9.00104 5.24862 9.08441 5.25699 9.16206 5.28501L12.272 6.40302L13.682 3.413C13.717 3.33821 13.7698 3.27323 13.836 3.22385C13.9021 3.17447 13.9794 3.14224 14.061 3.13001C15.236 2.95597 16.4301 2.95597 17.6051 3.13001C17.6868 3.14198 17.7642 3.174 17.8305 3.22321C17.8968 3.27242 17.9499 3.33727 17.9851 3.41199L19.3951 6.40302L22.505 5.28501C22.5825 5.25716 22.6657 5.2489 22.7472 5.26093C22.8287 5.27297 22.9059 5.30494 22.9721 5.35401C23.9261 6.06101 24.772 6.907 25.479 7.861C25.5283 7.92725 25.5604 8.00468 25.5724 8.08634C25.5844 8.168 25.5761 8.25138 25.548 8.32902L24.423 11.44L27.4211 12.848C27.4958 12.8831 27.5606 12.9362 27.6098 13.0025C27.6591 13.0689 27.6911 13.1463 27.703 13.228C27.8771 14.4029 27.8771 15.5971 27.703 16.772C27.6911 16.8537 27.6591 16.9312 27.6098 16.9975C27.5606 17.0638 27.4958 17.1169 27.4211 17.152L24.423 18.56L25.548 21.671C25.5761 21.7486 25.5844 21.832 25.5724 21.9137C25.5604 21.9953 25.5283 22.0728 25.479 22.139C24.772 23.093 23.9261 23.939 22.9721 24.646C22.9058 24.6952 22.8284 24.7273 22.7467 24.7394C22.6651 24.7514 22.5817 24.743 22.504 24.715L19.396 23.597L17.9851 26.587C17.9501 26.6619 17.897 26.727 17.8307 26.7764C17.7644 26.8258 17.6869 26.8579 17.6051 26.87C16.4301 27.044 15.236 27.044 14.061 26.87C13.9793 26.858 13.9019 26.826 13.8356 26.7768C13.7693 26.7276 13.7162 26.6628 13.681 26.588L12.272 23.597L9.16206 24.715C9.08441 24.743 9.00104 24.7514 8.91938 24.7394C8.83772 24.7273 8.76029 24.6952 8.69404 24.646C7.7395 23.9383 6.89472 23.0936 6.18705 22.139C6.13781 22.0728 6.10574 21.9953 6.0937 21.9137C6.08166 21.832 6.09003 21.7486 6.11805 21.671L7.24305 18.56L4.24503 17.152C4.17031 17.1169 4.10546 17.0638 4.05625 16.9975C4.00704 16.9312 3.97502 16.8537 3.96305 16.772C3.78901 15.5971 3.78901 14.4029 3.96305 13.228ZM4.91303 13.639L8.08204 12.154C8.19502 12.1011 8.28412 12.0078 8.33186 11.8926C8.37959 11.7773 8.38251 11.6483 8.34003 11.531L7.14304 8.26099C7.85204 7.24899 9.09104 6.32301 9.09104 6.32301L12.3641 7.507C12.4814 7.54947 12.6103 7.54655 12.7256 7.49882C12.8409 7.45108 12.9341 7.36198 12.987 7.249L14.483 4.08201C14.483 4.08201 15.285 4.00001 15.833 4.00001C16.381 4.00001 17.1831 4.07999 17.1831 4.07999L18.6791 7.249C18.732 7.36198 18.8252 7.45108 18.9405 7.49882C19.0558 7.54655 19.1847 7.54947 19.302 7.507L22.595 6.32401C22.595 6.32401 23.8651 7.35102 24.51 8.26002L23.3261 11.531C23.2836 11.6483 23.2865 11.7773 23.3342 11.8926C23.382 12.0078 23.4711 12.1011 23.5841 12.154L26.751 13.64C26.751 13.64 26.833 14.452 26.833 15C26.833 15.548 26.751 16.36 26.751 16.36L23.5841 17.846C23.4711 17.899 23.382 17.9922 23.3342 18.1075C23.2865 18.2227 23.2836 18.3517 23.3261 18.469L24.51 21.739C23.8651 22.649 22.595 23.676 22.595 23.676L19.302 22.493C19.1847 22.4505 19.0558 22.4535 18.9405 22.5012C18.8252 22.5489 18.732 22.638 18.6791 22.751L17.1831 25.92C17.1831 25.92 16.381 26 15.833 26C15.285 26 14.483 25.918 14.483 25.918L12.987 22.751C12.9341 22.638 12.8409 22.5489 12.7256 22.5012C12.6103 22.4535 12.4814 22.4505 12.3641 22.493L9.09104 23.677C9.09104 23.677 7.85104 22.751 7.14304 21.74L8.34003 18.469C8.38251 18.3517 8.37959 18.2227 8.33186 18.1075C8.28412 17.9922 8.19502 17.899 8.08204 17.846L4.91404 16.361C4.91404 16.361 4.83305 15.548 4.83305 15C4.83305 14.452 4.91303 13.64 4.91303 13.64V13.639ZM15.833 20C17.1591 20 18.4309 19.4732 19.3686 18.5355C20.3063 17.5978 20.833 16.3261 20.833 15C20.833 13.6739 20.3063 12.4022 19.3686 11.4645C18.4309 10.5268 17.1591 10 15.833 10C14.507 10 13.2352 10.5268 12.2975 11.4645C11.3598 12.4022 10.833 13.6739 10.833 15C10.833 16.3261 11.3598 17.5978 12.2975 18.5355C13.2352 19.4732 14.507 20 15.833 20ZM15.833 19C16.8939 19 17.9113 18.5786 18.6615 17.8284C19.4116 17.0783 19.833 16.0609 19.833 15C19.833 13.9391 19.4116 12.9217 18.6615 12.1716C17.9113 11.4214 16.8939 11 15.833 11C14.7722 11 13.7548 11.4214 13.0046 12.1716C12.2545 12.9217 11.833 13.9391 11.833 15C11.833 16.0609 12.2545 17.0783 13.0046 17.8284C13.7548 18.5786 14.7722 19 15.833 19Z"/>
</mask>
<path fill-rule="evenodd" clip-rule="evenodd" d="M3.96305 13.228C3.97502 13.1463 4.00704 13.0689 4.05625 13.0025C4.10546 12.9362 4.17031 12.8831 4.24503 12.848L7.24305 11.44L6.11805 8.32902C6.09003 8.25138 6.08166 8.168 6.0937 8.08634C6.10574 8.00468 6.13781 7.92725 6.18705 7.861C6.89405 6.907 7.74004 6.06101 8.69404 5.35401C8.76029 5.30477 8.83772 5.2727 8.91938 5.26066C9.00104 5.24862 9.08441 5.25699 9.16206 5.28501L12.272 6.40302L13.682 3.413C13.717 3.33821 13.7698 3.27323 13.836 3.22385C13.9021 3.17447 13.9794 3.14224 14.061 3.13001C15.236 2.95597 16.4301 2.95597 17.6051 3.13001C17.6868 3.14198 17.7642 3.174 17.8305 3.22321C17.8968 3.27242 17.9499 3.33727 17.9851 3.41199L19.3951 6.40302L22.505 5.28501C22.5825 5.25716 22.6657 5.2489 22.7472 5.26093C22.8287 5.27297 22.9059 5.30494 22.9721 5.35401C23.9261 6.06101 24.772 6.907 25.479 7.861C25.5283 7.92725 25.5604 8.00468 25.5724 8.08634C25.5844 8.168 25.5761 8.25138 25.548 8.32902L24.423 11.44L27.4211 12.848C27.4958 12.8831 27.5606 12.9362 27.6098 13.0025C27.6591 13.0689 27.6911 13.1463 27.703 13.228C27.8771 14.4029 27.8771 15.5971 27.703 16.772C27.6911 16.8537 27.6591 16.9312 27.6098 16.9975C27.5606 17.0638 27.4958 17.1169 27.4211 17.152L24.423 18.56L25.548 21.671C25.5761 21.7486 25.5844 21.832 25.5724 21.9137C25.5604 21.9953 25.5283 22.0728 25.479 22.139C24.772 23.093 23.9261 23.939 22.9721 24.646C22.9058 24.6952 22.8284 24.7273 22.7467 24.7394C22.6651 24.7514 22.5817 24.743 22.504 24.715L19.396 23.597L17.9851 26.587C17.9501 26.6619 17.897 26.727 17.8307 26.7764C17.7644 26.8258 17.6869 26.8579 17.6051 26.87C16.4301 27.044 15.236 27.044 14.061 26.87C13.9793 26.858 13.9019 26.826 13.8356 26.7768C13.7693 26.7276 13.7162 26.6628 13.681 26.588L12.272 23.597L9.16206 24.715C9.08441 24.743 9.00104 24.7514 8.91938 24.7394C8.83772 24.7273 8.76029 24.6952 8.69404 24.646C7.7395 23.9383 6.89472 23.0936 6.18705 22.139C6.13781 22.0728 6.10574 21.9953 6.0937 21.9137C6.08166 21.832 6.09003 21.7486 6.11805 21.671L7.24305 18.56L4.24503 17.152C4.17031 17.1169 4.10546 17.0638 4.05625 16.9975C4.00704 16.9312 3.97502 16.8537 3.96305 16.772C3.78901 15.5971 3.78901 14.4029 3.96305 13.228ZM4.91303 13.639L8.08204 12.154C8.19502 12.1011 8.28412 12.0078 8.33186 11.8926C8.37959 11.7773 8.38251 11.6483 8.34003 11.531L7.14304 8.26099C7.85204 7.24899 9.09104 6.32301 9.09104 6.32301L12.3641 7.507C12.4814 7.54947 12.6103 7.54655 12.7256 7.49882C12.8409 7.45108 12.9341 7.36198 12.987 7.249L14.483 4.08201C14.483 4.08201 15.285 4.00001 15.833 4.00001C16.381 4.00001 17.1831 4.07999 17.1831 4.07999L18.6791 7.249C18.732 7.36198 18.8252 7.45108 18.9405 7.49882C19.0558 7.54655 19.1847 7.54947 19.302 7.507L22.595 6.32401C22.595 6.32401 23.8651 7.35102 24.51 8.26002L23.3261 11.531C23.2836 11.6483 23.2865 11.7773 23.3342 11.8926C23.382 12.0078 23.4711 12.1011 23.5841 12.154L26.751 13.64C26.751 13.64 26.833 14.452 26.833 15C26.833 15.548 26.751 16.36 26.751 16.36L23.5841 17.846C23.4711 17.899 23.382 17.9922 23.3342 18.1075C23.2865 18.2227 23.2836 18.3517 23.3261 18.469L24.51 21.739C23.8651 22.649 22.595 23.676 22.595 23.676L19.302 22.493C19.1847 22.4505 19.0558 22.4535 18.9405 22.5012C18.8252 22.5489 18.732 22.638 18.6791 22.751L17.1831 25.92C17.1831 25.92 16.381 26 15.833 26C15.285 26 14.483 25.918 14.483 25.918L12.987 22.751C12.9341 22.638 12.8409 22.5489 12.7256 22.5012C12.6103 22.4535 12.4814 22.4505 12.3641 22.493L9.09104 23.677C9.09104 23.677 7.85104 22.751 7.14304 21.74L8.34003 18.469C8.38251 18.3517 8.37959 18.2227 8.33186 18.1075C8.28412 17.9922 8.19502 17.899 8.08204 17.846L4.91404 16.361C4.91404 16.361 4.83305 15.548 4.83305 15C4.83305 14.452 4.91303 13.64 4.91303 13.64V13.639ZM15.833 20C17.1591 20 18.4309 19.4732 19.3686 18.5355C20.3063 17.5978 20.833 16.3261 20.833 15C20.833 13.6739 20.3063 12.4022 19.3686 11.4645C18.4309 10.5268 17.1591 10 15.833 10C14.507 10 13.2352 10.5268 12.2975 11.4645C11.3598 12.4022 10.833 13.6739 10.833 15C10.833 16.3261 11.3598 17.5978 12.2975 18.5355C13.2352 19.4732 14.507 20 15.833 20ZM15.833 19C16.8939 19 17.9113 18.5786 18.6615 17.8284C19.4116 17.0783 19.833 16.0609 19.833 15C19.833 13.9391 19.4116 12.9217 18.6615 12.1716C17.9113 11.4214 16.8939 11 15.833 11C14.7722 11 13.7548 11.4214 13.0046 12.1716C12.2545 12.9217 11.833 13.9391 11.833 15C11.833 16.0609 12.2545 17.0783 13.0046 17.8284C13.7548 18.5786 14.7722 19 15.833 19Z" fill="#82868C"/>
<path fill-rule="evenodd" clip-rule="evenodd" d="M3.96305 13.228C3.97502 13.1463 4.00704 13.0689 4.05625 13.0025C4.10546 12.9362 4.17031 12.8831 4.24503 12.848L7.24305 11.44L6.11805 8.32902C6.09003 8.25138 6.08166 8.168 6.0937 8.08634C6.10574 8.00468 6.13781 7.92725 6.18705 7.861C6.89405 6.907 7.74004 6.06101 8.69404 5.35401C8.76029 5.30477 8.83772 5.2727 8.91938 5.26066C9.00104 5.24862 9.08441 5.25699 9.16206 5.28501L12.272 6.40302L13.682 3.413C13.717 3.33821 13.7698 3.27323 13.836 3.22385C13.9021 3.17447 13.9794 3.14224 14.061 3.13001C15.236 2.95597 16.4301 2.95597 17.6051 3.13001C17.6868 3.14198 17.7642 3.174 17.8305 3.22321C17.8968 3.27242 17.9499 3.33727 17.9851 3.41199L19.3951 6.40302L22.505 5.28501C22.5825 5.25716 22.6657 5.2489 22.7472 5.26093C22.8287 5.27297 22.9059 5.30494 22.9721 5.35401C23.9261 6.06101 24.772 6.907 25.479 7.861C25.5283 7.92725 25.5604 8.00468 25.5724 8.08634C25.5844 8.168 25.5761 8.25138 25.548 8.32902L24.423 11.44L27.4211 12.848C27.4958 12.8831 27.5606 12.9362 27.6098 13.0025C27.6591 13.0689 27.6911 13.1463 27.703 13.228C27.8771 14.4029 27.8771 15.5971 27.703 16.772C27.6911 16.8537 27.6591 16.9312 27.6098 16.9975C27.5606 17.0638 27.4958 17.1169 27.4211 17.152L24.423 18.56L25.548 21.671C25.5761 21.7486 25.5844 21.832 25.5724 21.9137C25.5604 21.9953 25.5283 22.0728 25.479 22.139C24.772 23.093 23.9261 23.939 22.9721 24.646C22.9058 24.6952 22.8284 24.7273 22.7467 24.7394C22.6651 24.7514 22.5817 24.743 22.504 24.715L19.396 23.597L17.9851 26.587C17.9501 26.6619 17.897 26.727 17.8307 26.7764C17.7644 26.8258 17.6869 26.8579 17.6051 26.87C16.4301 27.044 15.236 27.044 14.061 26.87C13.9793 26.858 13.9019 26.826 13.8356 26.7768C13.7693 26.7276 13.7162 26.6628 13.681 26.588L12.272 23.597L9.16206 24.715C9.08441 24.743 9.00104 24.7514 8.91938 24.7394C8.83772 24.7273 8.76029 24.6952 8.69404 24.646C7.7395 23.9383 6.89472 23.0936 6.18705 22.139C6.13781 22.0728 6.10574 21.9953 6.0937 21.9137C6.08166 21.832 6.09003 21.7486 6.11805 21.671L7.24305 18.56L4.24503 17.152C4.17031 17.1169 4.10546 17.0638 4.05625 16.9975C4.00704 16.9312 3.97502 16.8537 3.96305 16.772C3.78901 15.5971 3.78901 14.4029 3.96305 13.228ZM4.91303 13.639L8.08204 12.154C8.19502 12.1011 8.28412 12.0078 8.33186 11.8926C8.37959 11.7773 8.38251 11.6483 8.34003 11.531L7.14304 8.26099C7.85204 7.24899 9.09104 6.32301 9.09104 6.32301L12.3641 7.507C12.4814 7.54947 12.6103 7.54655 12.7256 7.49882C12.8409 7.45108 12.9341 7.36198 12.987 7.249L14.483 4.08201C14.483 4.08201 15.285 4.00001 15.833 4.00001C16.381 4.00001 17.1831 4.07999 17.1831 4.07999L18.6791 7.249C18.732 7.36198 18.8252 7.45108 18.9405 7.49882C19.0558 7.54655 19.1847 7.54947 19.302 7.507L22.595 6.32401C22.595 6.32401 23.8651 7.35102 24.51 8.26002L23.3261 11.531C23.2836 11.6483 23.2865 11.7773 23.3342 11.8926C23.382 12.0078 23.4711 12.1011 23.5841 12.154L26.751 13.64C26.751 13.64 26.833 14.452 26.833 15C26.833 15.548 26.751 16.36 26.751 16.36L23.5841 17.846C23.4711 17.899 23.382 17.9922 23.3342 18.1075C23.2865 18.2227 23.2836 18.3517 23.3261 18.469L24.51 21.739C23.8651 22.649 22.595 23.676 22.595 23.676L19.302 22.493C19.1847 22.4505 19.0558 22.4535 18.9405 22.5012C18.8252 22.5489 18.732 22.638 18.6791 22.751L17.1831 25.92C17.1831 25.92 16.381 26 15.833 26C15.285 26 14.483 25.918 14.483 25.918L12.987 22.751C12.9341 22.638 12.8409 22.5489 12.7256 22.5012C12.6103 22.4535 12.4814 22.4505 12.3641 22.493L9.09104 23.677C9.09104 23.677 7.85104 22.751 7.14304 21.74L8.34003 18.469C8.38251 18.3517 8.37959 18.2227 8.33186 18.1075C8.28412 17.9922 8.19502 17.899 8.08204 17.846L4.91404 16.361C4.91404 16.361 4.83305 15.548 4.83305 15C4.83305 14.452 4.91303 13.64 4.91303 13.64V13.639ZM15.833 20C17.1591 20 18.4309 19.4732 19.3686 18.5355C20.3063 17.5978 20.833 16.3261 20.833 15C20.833 13.6739 20.3063 12.4022 19.3686 11.4645C18.4309 10.5268 17.1591 10 15.833 10C14.507 10 13.2352 10.5268 12.2975 11.4645C11.3598 12.4022 10.833 13.6739 10.833 15C10.833 16.3261 11.3598 17.5978 12.2975 18.5355C13.2352 19.4732 14.507 20 15.833 20ZM15.833 19C16.8939 19 17.9113 18.5786 18.6615 17.8284C19.4116 17.0783 19.833 16.0609 19.833 15C19.833 13.9391 19.4116 12.9217 18.6615 12.1716C17.9113 11.4214 16.8939 11 15.833 11C14.7722 11 13.7548 11.4214 13.0046 12.1716C12.2545 12.9217 11.833 13.9391 11.833 15C11.833 16.0609 12.2545 17.0783 13.0046 17.8284C13.7548 18.5786 14.7722 19 15.833 19Z" stroke="#82868C" stroke-width="0.6" mask="url(#path-1-outside-1_228_2156)"/>
</svg>
