<svg width="31" height="31" viewBox="0 0 31 31" fill="none" xmlns="http://www.w3.org/2000/svg">
<path d="M11.7837 16.4383L11.7395 16.2968L11.5975 16.3394L10.6225 16.6319L10.4768 16.6756L10.5225 16.8206C10.8757 17.9407 11.5767 18.919 12.5238 19.6135C13.4709 20.308 14.6148 20.6824 15.7892 20.6824C16.9636 20.6824 18.1075 20.308 19.0546 19.6135C20.0017 18.919 20.7027 17.9407 21.0559 16.8206L21.1016 16.6756L20.9559 16.6319L19.9809 16.3394L19.8389 16.2968L19.7946 16.4383C19.5295 17.2866 19.0038 18.0298 18.2922 18.5622C17.5808 19.0945 16.7199 19.3891 15.8316 19.4043C14.9288 19.407 14.0487 19.1207 13.3204 18.5871C12.5918 18.0534 12.0533 17.3003 11.7837 16.4383ZM13.2456 12.7293V12.8793H13.3956H14.3706H14.5206V12.7293C14.5206 11.9137 14.1966 11.1316 13.6199 10.5549C13.0432 9.97826 12.2611 9.65429 11.4456 9.65429C10.63 9.65429 9.84789 9.97826 9.27122 10.5549C8.69454 11.1316 8.37057 11.9137 8.37057 12.7293V12.8793H8.52057H9.49557H9.64557V12.7293C9.64557 12.2519 9.83521 11.7941 10.1728 11.4565C10.5103 11.1189 10.9682 10.9293 11.4456 10.9293C11.923 10.9293 12.3808 11.1189 12.7184 11.4565C13.0559 11.7941 13.2456 12.2519 13.2456 12.7293ZM17.1456 12.7293V12.8793H17.2956H18.2706H18.4206V12.7293C18.4206 12.2519 18.6102 11.7941 18.9478 11.4565C19.2853 11.1189 19.7432 10.9293 20.2206 10.9293C20.698 10.9293 21.1558 11.1189 21.4934 11.4565C21.8309 11.7941 22.0206 12.2519 22.0206 12.7293V12.8793H22.1706H23.1456H23.2956V12.7293C23.2956 11.9137 22.9716 11.1316 22.3949 10.5549C21.8182 9.97826 21.0361 9.65429 20.2206 9.65429C19.405 9.65429 18.6229 9.97826 18.0462 10.5549C17.4695 11.1316 17.1456 11.9137 17.1456 12.7293Z" fill="#82868C" stroke="#82868C" stroke-width="0.3"/>
<path d="M15.8332 2.82928H15.8331C13.3929 2.82928 11.0076 3.55286 8.97873 4.90852C6.94983 6.26418 5.36851 8.19104 4.43471 10.4454C3.50091 12.6998 3.25659 15.1805 3.73264 17.5737C4.20868 19.9669 5.38371 22.1653 7.10914 23.8907C8.83457 25.6161 11.0329 26.7912 13.4261 27.2672C15.8194 27.7433 18.3 27.4989 20.5544 26.5651C22.8088 25.6313 24.7357 24.05 26.0913 22.0211C27.447 19.9922 28.1706 17.6069 28.1706 15.1668V15.1667C28.168 11.8954 26.8673 8.75884 24.5541 6.4457C22.241 4.13256 19.1045 2.83189 15.8332 2.82928ZM15.8329 26.2293C13.645 26.2292 11.5063 25.5804 9.68708 24.3649C7.86786 23.1493 6.44995 21.4216 5.61266 19.4002C4.77536 17.3788 4.55629 15.1545 4.98314 13.0086C5.40999 10.8627 6.46359 8.89153 8.0107 7.34441C9.55782 5.79729 11.529 4.74369 13.6749 4.31684C15.8208 3.88999 18.0451 4.10907 20.0665 4.94636C22.0879 5.78365 23.8156 7.20156 25.0312 9.02078C26.2467 10.84 26.8955 12.9787 26.8956 15.1666C26.893 18.0999 25.7267 20.9122 23.6526 22.9863C21.5785 25.0604 18.7662 26.2267 15.8329 26.2293Z" fill="#82868C" stroke="#82868C" stroke-width="0.3"/>
</svg>
